HIERARCHY
ROOT RootJoint
{
    OFFSET   0.000000   0.000000   0.000000
    CHANNELS 6 Xposition Yposition Zposition Xrotation Yrotation Zrotation
    JOINT pelvis_lowerback
    {
        OFFSET   0.000000   0.093605   0.000000
        CHANNELS 3 Xrotation Yrotation Zrotation
        JOINT lowerback_torso
        {
            OFFSET   0.000000   0.100000   0.000000
            CHANNELS 3 Xrotation Yrotation Zrotation
            JOINT torso_head
            {
                OFFSET   0.000000   0.282350   0.000000
                CHANNELS 3 Xrotation Yrotation Zrotation
                End Site
                {
                    OFFSET   0.000000   0.192650   0.000000
                }
            }
            JOINT rTorso_Clavicle
            {
                OFFSET  -0.001000   0.157500   0.000000
                CHANNELS 3 Xrotation Yrotation Zrotation
                JOINT rShoulder
                {
                    OFFSET  -0.117647   0.000000   0.000000
                    CHANNELS 3 Xrotation Yrotation Zrotation
                    JOINT rElbow
                    {
                        OFFSET  -0.245000   0.000000   0.000000
                        CHANNELS 3 Xrotation Yrotation Zrotation
                        JOINT rWrist
                        {
                            OFFSET  -0.240000   0.000000   0.000000
                            CHANNELS 3 Xrotation Yrotation Zrotation
                            End Site
                            {
                                OFFSET  -0.116353  -0.002500   0.000000
                            }
                        }
                    }
                }
            }
            JOINT lTorso_Clavicle
            {
                OFFSET   0.001000   0.157500   0.000000
                CHANNELS 3 Xrotation Yrotation Zrotation
                JOINT lShoulder
                {
                    OFFSET   0.117647   0.000000   0.000000
                    CHANNELS 3 Xrotation Yrotation Zrotation
                    JOINT lElbow
                    {
                        OFFSET   0.245000   0.000000   0.000000
                        CHANNELS 3 Xrotation Yrotation Zrotation
                        JOINT lWrist
                        {
                            OFFSET   0.240000   0.000000   0.000000
                            CHANNELS 3 Xrotation Yrotation Zrotation
                            End Site
                            {
                                OFFSET   0.116353  -0.002500   0.000000
                            }
                        }
                    }
                }
            }
        }
    }
    JOINT rHip
    {
        OFFSET  -0.100000  -0.051395   0.000000
        CHANNELS 3 Xrotation Yrotation Zrotation
        JOINT rKnee
        {
            OFFSET   0.000000  -0.410000   0.000000
            CHANNELS 3 Xrotation Yrotation Zrotation
            JOINT rAnkle
            {
                OFFSET   0.000000  -0.390000   0.000000
                CHANNELS 3 Xrotation Yrotation Zrotation
                JOINT rToeJoint
                {
                    OFFSET   0.000000  -0.050000   0.130000
                    CHANNELS 3 Xrotation Yrotation Zrotation
                    End Site
                    {
                        OFFSET  -0.010000   0.002000   0.060000
                    }
                }
            }
        }
    }
    JOINT lHip
    {
        OFFSET   0.100000  -0.051395   0.000000
        CHANNELS 3 Xrotation Yrotation Zrotation
        JOINT lKnee
        {
            OFFSET   0.000000  -0.410000   0.000000
            CHANNELS 3 Xrotation Yrotation Zrotation
            JOINT lAnkle
            {
                OFFSET   0.000000  -0.390000   0.000000
                CHANNELS 3 Xrotation Yrotation Zrotation
                JOINT lToeJoint
                {
                    OFFSET   0.000000  -0.050000   0.130000
                    CHANNELS 3 Xrotation Yrotation Zrotation
                    End Site
                    {
                        OFFSET   0.010000   0.002000   0.060000
                    }
                }
            }
        }
    }
}
MOTION
Frames: 15
Frame Time:   0.008333
 -2.157677   0.922518   3.852950  18.340529  13.835322   0.732047  -6.191370  -2.794635  -4.762766  -6.710968  -7.527976   0.431244   2.420202   0.279473  -4.210352  -8.163715 -19.014133 -10.519394 -28.013387 -11.009564  -1.586660  -0.006254  13.426075   0.007552  -4.695956  -0.908483   3.327369  -5.072197   5.244517  12.948804 -12.917244 -10.742480  13.064078  -0.000990 -37.303453  -0.001158  -0.327575  -5.524473  -4.569385 -16.130631  -2.495590   1.507149   5.209709   0.000290   0.000279  -7.014567 -14.404299  -6.259765  -2.701841   0.000382   0.000371 -13.347539   5.105521   0.582428  18.462485   0.000647   0.000916   2.039891   3.430289  -4.968694 -28.095182  -0.000989   0.007404
 -2.158909   0.922705   3.852951  18.366984  13.748730   0.745096  -6.106956  -2.851283  -4.777300  -6.740992  -7.525868   0.352093   2.377403   0.287107  -4.226344  -8.230057 -18.980112 -10.563062 -28.208783 -10.839058  -1.711318  -0.005384  13.551428   0.006320  -4.646694  -0.790106   3.127349  -5.131547   5.243284  12.999868 -13.091384 -10.717053  13.280348  -0.000830 -37.318079  -0.000957  -0.259807  -5.584203  -4.273179 -16.156060  -2.487961   1.586420   5.132921   0.000286   0.000273  -6.764923 -14.448024  -6.050435  -2.985565   0.000874   0.000592 -13.391073   5.026259   0.679362  18.431225   0.000556   0.000769   2.158290   3.356318  -5.008590 -28.095630  -0.000792   0.005924
 -2.160142   0.923029   3.852918  18.381560  13.676222   0.767381  -6.012358  -2.903233  -4.799312  -6.758283  -7.522212   0.265860   2.336063   0.295910  -4.246222  -8.292992 -18.952114 -10.588315 -28.389446 -10.691094  -1.817076  -0.004601  13.660443   0.005270  -4.594549  -0.728275   2.948893  -5.180202   5.241902  13.039341 -13.249142 -10.692564  13.475929  -0.000690 -37.330828  -0.000787  -0.188120  -5.634202  -4.028951 -16.188296  -2.479869   1.665631   5.075234   0.000274   0.000249  -6.532734 -14.468008  -6.056396  -3.264219   0.000774   0.000658 -13.436042   4.951154   0.765664  18.411902   0.000468   0.000634   2.285362   3.285412  -5.043711 -27.895375  -0.000640   0.004385
 -2.161353   0.923416   3.852882  18.385676  13.613324   0.800086  -5.916182  -2.951465  -4.828894  -6.766120  -7.517572   0.176784   2.299092   0.304357  -4.266356  -8.351912 -18.926334 -10.607186 -28.557186 -10.555905  -1.911339  -0.003929  13.760135   0.004395  -4.543143  -0.689916   2.789423  -5.222501   5.240687  13.070276 -13.394564 -10.668855  13.652952  -0.000569 -37.342000  -0.000646  -0.118513  -5.677492  -3.818199 -16.219921  -2.479068   1.731393   5.033974   0.000250   0.000221  -6.280540 -14.496679  -6.047424  -3.583856   0.000717   0.000753 -13.475005   4.880998   0.839146  18.398017   0.000389   0.000520   2.414625   3.218341  -5.075145 -27.581507  -0.000541   0.002993
 -2.162538   0.923827   3.852856  18.383016  13.560535   0.838001  -5.822643  -2.997413  -4.862450  -6.768545  -7.513082   0.087378   2.265480   0.312273  -4.285637  -8.406644 -18.901988 -10.624642 -28.713207 -10.429900  -1.998167  -0.003358  13.852634   0.003671  -4.493389  -0.660341   2.641842  -5.260035   5.239457  13.095098 -13.529214 -10.646361  13.814548  -0.000469 -37.352040  -0.000529  -0.051427  -5.716410  -3.629977 -16.248708  -2.479748   1.787539   5.003928   0.000222   0.000191  -6.024983 -14.525902  -6.029572  -3.918006   0.000686   0.000817 -13.509370   4.814952   0.904279  18.388426   0.000322   0.000424   2.542190   3.154534  -5.103774 -27.211123  -0.000490   0.001836
 -2.163701   0.924239   3.852844  18.376239  13.517522   0.877846  -5.733600  -3.041303  -4.898117  -6.768162  -7.509116  -0.000833   2.234433   0.319680  -4.303752  -8.457378 -18.878987 -10.642392 -28.858478 -10.311646  -2.079452  -0.002875  13.938931   0.003073  -4.445548  -0.633960   2.501706  -5.293847   5.238145  13.115659 -13.654243 -10.625287  13.963088  -0.000385 -37.361222  -0.000434   0.013094  -5.752397  -3.457861 -16.274225  -2.480597   1.837341   4.981355   0.000193   0.000162  -5.774704 -14.554146  -6.007230  -4.252339   0.000666   0.000839 -13.540348   4.752894   0.963900  18.381886   0.000264   0.000344   2.665914   3.094267  -5.129994 -26.817589  -0.000473   0.000929
 -2.164853   0.924500   3.852845  18.363974  13.470444   0.883548  -5.648787  -3.078173  -4.907196  -6.760253  -7.503040  -0.072743   2.205418   0.326668  -4.319416  -8.503137 -18.853894 -10.669883 -28.993833 -10.196319  -2.159356  -0.002471  14.020028   0.002578  -4.399741  -0.609626   2.366141  -5.325159   5.236446  13.140261 -13.770613 -10.606022  14.103066  -0.000317 -37.369146  -0.000355   0.075030  -5.782674  -3.299728 -16.287875  -2.481089   1.925359   4.961252   0.000169   0.000136  -5.572280 -14.578535  -6.002415  -4.525920   0.000619   0.000807 -13.565604   4.702932   1.077129  18.398476   0.000193   0.000266   2.957441   3.066174  -5.118181 -24.223278  -0.002967  -0.001913
 -2.165820   0.924534   3.852669  18.333233  13.599094   0.983102  -5.502068  -3.167796  -4.974455  -6.783618  -7.512597  -0.179505   2.176516   0.312538  -4.359460  -8.491573 -18.851992 -10.732579 -29.101498 -10.155217  -2.249570  -0.001815  13.938947   0.002016  -4.312262  -0.518558   2.226468  -5.338156   5.180428  13.142867 -13.727408 -10.614981  14.232067  -0.000259 -37.356328  -0.000298   0.140712  -5.767763  -3.079086 -16.212997  -2.431775   1.866398   4.830599   0.000193  -0.000062  -5.606748 -14.720716  -6.057635  -4.393526   0.000457   0.000634 -13.763210   4.716794   1.059156  18.786907   0.000020   0.000693   2.722840   2.927311  -5.188896 -23.467395  -0.002140  -0.001399
 -2.166678   0.924450   3.852419  18.302196  13.725207   1.100830  -5.351929  -3.240377  -5.030872  -6.795766  -7.521644  -0.289962   2.148605   0.301812  -4.398640  -8.481177 -18.856535 -10.791673 -29.202232 -10.124477  -2.338273  -0.001305  13.855582   0.001591  -4.223059  -0.482231   2.074668  -5.335500   5.121302  13.117507 -13.677930 -10.628217  14.332866  -0.000215 -37.348327  -0.000251   0.206593  -5.761908  -2.920518 -16.120911  -2.376120   1.785597   4.673561   0.000217  -0.000253  -5.708591 -14.853071  -6.147899  -4.143648   0.000338   0.000489 -13.980023   4.744979   1.015175  19.210435  -0.000078   0.001094   2.506623   2.796152  -5.255362 -22.813737  -0.001500  -0.000928
 -2.167471   0.924291   3.852107  18.277674  13.820208   1.220645  -5.203210  -3.298821  -5.074368  -6.800937  -7.524048  -0.391779   2.123073   0.292719  -4.433529  -8.471466 -18.858179 -10.840426 -29.295976 -10.096499  -2.416921  -0.000925  13.776897   0.001273  -4.136787  -0.460766   1.929149  -5.326886   5.066250  13.074793 -13.628189 -10.639094  14.414112  -0.000181 -37.341819  -0.000211   0.269673  -5.762862  -2.803856 -16.034953  -2.321883   1.707465   4.506306   0.000241  -0.000371  -5.837235 -14.974825  -6.250173  -3.839332   0.000251   0.000302 -14.193871   4.775062   0.968094  19.617292  -0.000162   0.001287   2.304666   2.673320  -5.318430 -22.242156  -0.001006  -0.000698
 -2.168214   0.924080   3.851740  18.260440  13.881356   1.339168  -5.056339  -3.346831  -5.107770  -6.800835  -7.520225  -0.483218   2.099845   0.284473  -4.464650  -8.462196 -18.855458 -10.877665 -29.382945 -10.070459  -2.483954  -0.000645  13.703336   0.001035  -4.053912  -0.443501   1.797967  -5.315473   5.015642  13.022419 -13.579852 -10.647326  14.481600  -0.000154 -37.335751  -0.000180   0.330055  -5.765052  -2.713500 -15.960576  -2.271190   1.636744   4.335809   0.000265  -0.000416  -5.978557 -15.087488  -6.357251  -3.506043   0.000184   0.000059 -14.400131   4.804362   0.922751  19.997418  -0.000241   0.001301   2.115133   2.558128  -5.378247 -21.736154  -0.000634  -0.000651
 -2.168916   0.923834   3.851325  18.249719  13.910976   1.455867  -4.911446  -3.387008  -5.133332  -6.796062  -7.511777  -0.564915   2.078805   0.276824  -4.492842  -8.453343 -18.848880 -10.904381 -29.463579 -10.046333  -2.540167  -0.000438  13.634621   0.000858  -3.974397  -0.428342   1.682566  -5.302542   4.968691  12.965129 -13.533485 -10.653739  14.538958  -0.000132 -37.329970  -0.000154   0.387904  -5.766798  -2.640542 -15.898221  -2.224106   1.573575   4.164811   0.000287  -0.000402  -6.125743 -15.191836  -6.465681  -3.156239   0.000128  -0.000228 -14.597619   4.832391   0.879848  20.350104  -0.000317   0.001195   1.937145   2.450137  -5.434916 -21.285936  -0.000360  -0.000713
 -2.169579   0.923562   3.850868  18.244469  13.911974   1.570881  -4.768757  -3.421240  -5.152588  -6.787004  -7.500220  -0.637849   2.059811   0.269678  -4.518687  -8.444905 -18.839268 -10.922251 -29.538361 -10.024061  -2.587018  -0.000285  13.570419   0.000725  -3.898124  -0.414886   1.581812  -5.288709   4.924628  12.905836 -13.489268 -10.659117  14.588539  -0.000114 -37.324540  -0.000132   0.443333  -5.768164  -2.579832 -15.847110  -2.180246   1.517185   3.994835   0.000305  -0.000344  -6.274792 -15.288430  -6.573427  -2.797582   0.000079  -0.000539 -14.785941   4.859153   0.839176  20.676809  -0.000386   0.001016   1.770006   2.348960  -5.488546 -20.884833  -0.000163  -0.000830
 -2.170280   0.923257   3.850394  18.208395  13.905591   1.694007  -4.659862  -3.359132  -5.192766  -6.690030  -7.481496  -0.701747   2.034674   0.282986  -4.542304  -8.357147 -18.871072 -11.019584 -29.566601 -10.113518  -2.591198  -0.000015  13.361636   0.000927  -3.821262  -0.365385   1.573189  -5.238637   4.809116  12.817767 -13.301775 -10.709783  14.622688  -0.000442 -37.220349  -0.000484   0.512515  -5.774870  -2.434560 -15.857376  -2.267963   1.495804   3.967583   0.000268  -0.000248  -6.496919 -15.573283  -6.708488  -2.477438   0.000050  -0.001660 -15.027155   5.045217   0.830515  21.302844  -0.000383   0.001759   1.481274   2.273162  -5.556749 -19.894521  -0.000008   0.000329
 -2.170965   0.922974   3.849979  18.148954  13.871904   1.831068  -4.556020  -3.286815  -5.238512  -6.582944  -7.461326  -0.774723   2.012378   0.300380  -4.562099  -8.274219 -18.906613 -11.118189 -29.592431 -10.202533  -2.600528   0.000235  13.159364   0.001044  -3.742207  -0.374090   1.578733  -5.173549   4.691902  12.707216 -13.115496 -10.762510  14.631568  -0.000715 -37.124216  -0.000720   0.583123  -5.775074  -2.362076 -15.867673  -2.381653   1.478432   3.981125   0.000201  -0.000218  -6.720056 -15.866449  -6.859959  -2.194848   0.000064  -0.002559 -15.223695   5.233894   0.826332  21.943371  -0.000451   0.002255   1.224376   2.209471  -5.617540 -18.880016  -0.000042   0.001179
